{"title":"Ticket.Out.2011.DVDRip.x264- OCW","uid":6894115,"size":1332115998,"categoryP":"video","categoryS":"movies","magnet":"?xt=urn:btih:2d79eab82b3340eb33c93ae9fbf0fc8edff67f62&amp;dn=Ticket.Out.2011.DVDRip.x264-+OCW&amp;tr=udp%3A%2F%2Ftracker.openbittorrent.com%3A80&amp;tr=udp%3A%2F%2Fopen.demonii.com%3A1337&amp;tr=udp%3A%2F%2Ftracker.coppersurfer.tk%3A6969&amp;tr=udp%3A%2F%2Fexodus.desync.com%3A6969","seeders":0,"leechers":1,"uploader":"LegendET","files":3,"time":1324130279,"description":"[center]\n\nTicket Out 2011 DVDRip.x264-OCW\n &lt;a href=&quot;\nhttp://www.imdb.com/title/tt1368870/&quot; rel=&quot;nofollow&quot; target=&quot;_NEW&quot;&gt;\nhttp://www.imdb.com/title/tt1368870/&lt;/a&gt;\n\nGeneral\n\nComplete name                    : Ticket.Out.2011.DVDRip.x264-OCW.avi\nFormat                         : AVI\nFormat/Info                      : Audio Video Interleave\nFile size                        : 1.24 GiB\nDuration                       : 1h 29mn\nOverall bit rate               : 1 975 Kbps\n\nVideo\n\nID                             : 0\nFormat                         : AVC\nFormat/Info                      : Advanced Video Codec\nFormat profile                 : &lt;a class=&quot;__cf_email__&quot; href=&quot;/cdn-cgi/l/email-protection&quot; data-cfemail=&quot;feb6979996beb2cbd0cf&quot;&gt;[email&amp;#160;protected]&lt;/a&gt;&lt;script cf-hash='f9e31' type=&quot;text/javascript&quot;&gt;\n/* &lt;![CDATA[ */!function(){try{var t=&quot;currentScript&quot;in document?document.currentScript:function(){for(var t=document.getElementsByTagName(&quot;script&quot;),e=t.length;e--;)if(t[e].getAttribute(&quot;cf-hash&quot;))return t[e]}();if(t&amp;&amp;t.previousSibling){var e,r,n,i,c=t.previousSibling,a=c.getAttribute(&quot;data-cfemail&quot;);if(a){for(e=&quot;&quot;,r=parseInt(a.substr(0,2),16),n=2;a.length-n;n+=2)i=parseInt(a.substr(n,2),16)^r,e+=String.fromCharCode(i);e=document.createTextNode(e),c.parentNode.replaceChild(e,c)}}}catch(u){}}();/* ]]&gt; */&lt;/script&gt;\nFormat settings, CABAC         : Yes\nFormat settings, ReFrames        : 2 frames\nCodec ID                       : H264\nDuration                       : 1h 29mn\nBit rate                       : 1 771 Kbps\nWidth                            : 852 pixels\nHeight                         : 480 pixels\nDisplay aspect ratio           : 16:9\nFrame rate                     : 29.970 fps\nColor space                      : YUV\nChroma subsampling             : 4:2:0\nBit depth                        : 8 bits\nScan type                        : Progressive\nBits/(Pixel*Frame)             : 0.145\nStream size                      : 1.11 GiB (90%)\n\nAudio\n\nID                             : 1\nFormat                         : MPEG Audio\nFormat version                 : Version 1\nFormat profile                 : Layer 3\nCodec ID                       : 55\nCodec ID/Hint                    : MP3\nDuration                       : 1h 29mn\nBit rate mode                    : Constant\nBit rate                       : 192 Kbps\nChannel(s)                     : 2 channels\nSampling rate                    : 44.1 KHz\nCompression mode               : Lossy\nStream size                      : 124 MiB (10%)\nAlignment                        : Split accross interleaves\nInterleave, duration           : 33 ms (1.00 video frame)\nInterleave, preload duration   : 390 ms\nWriting library                  : LAMELAME_MAJOR_VERSI\n\nStoryline\n\nAbout a mother who takes her children and flees an abusive ex-husband with \nthe help of Ray Liotta's character.\n\nCast\n\nRay Liotta ... Jim\nAlexandra Breckenridge ... Jocelyn\nColin Ford ... DJ\nCiara Bond ... Mary Sue\nBilly Burke ... Dennis\nScott Michael Campbell ... Miller\nChristopher B. Duncan ... Kemp\nJudith Benezra ... Agent Sarah Dalrymple\nMichael Shamus Wiles ... Danvers\n\n[img]http://i.imgur.com/o986C.jpg[/img]\n[img]http://i.imgur.com/Y5Isr.jpg[/img]\n[img]http://i.imgur.com/yPRoB.jpg[/img][/center]","torrent":{"xt":"urn:btih:2d79eab82b3340eb33c93ae9fbf0fc8edff67f62","amp;dn":"Ticket.Out.2011.DVDRip.x264-+OCW","amp;tr":["udp%3A%2F%2Ftracker.openbittorrent.com%3A80","udp%3A%2F%2Fopen.demonii.com%3A1337","udp%3A%2F%2Ftracker.coppersurfer.tk%3A6969","udp%3A%2F%2Fexodus.desync.com%3A6969"],"infoHash":"2d79eab82b3340eb33c93ae9fbf0fc8edff67f62","infoHashBuffer":{"type":"Buffer","data":[45,121,234,184,43,51,64,235,51,201,58,233,251,240,252,142,223,246,127,98]},"announce":[],"urlList":[]}}